<?xml version="1.0" encoding="UTF-8" standalone="no"?>
<!-- Created with Inkscape (http://www.inkscape.org/) -->

<svg
   width="158.23158mm"
   height="42.301105mm"
   viewBox="0 0 158.23158 42.301105"
   version="1.1"
   id="svg5"
   inkscape:version="1.1.1 (3bf5ae0d25, 2021-09-20, custom)"
   sodipodi:docname="logo.svg"
   xmlns:inkscape="http://www.inkscape.org/namespaces/inkscape"
   xmlns:sodipodi="http://sodipodi.sourceforge.net/DTD/sodipodi-0.dtd"
   xmlns="http://www.w3.org/2000/svg"
   xmlns:svg="http://www.w3.org/2000/svg">
  <sodipodi:namedview
     id="namedview7"
     pagecolor="#ffffff"
     bordercolor="#666666"
     borderopacity="1.0"
     inkscape:pageshadow="2"
     inkscape:pageopacity="0.0"
     inkscape:pagecheckerboard="0"
     inkscape:document-units="mm"
     showgrid="false"
     fit-margin-top="0"
     fit-margin-left="0"
     fit-margin-right="0"
     fit-margin-bottom="0"
     inkscape:zoom="1.5554293"
     inkscape:cx="6.7505479"
     inkscape:cy="186.76516"
     inkscape:window-width="3440"
     inkscape:window-height="1372"
     inkscape:window-x="0"
     inkscape:window-y="38"
     inkscape:window-maximized="1"
     inkscape:current-layer="layer1" />
  <defs
     id="defs2" />
  <g
     inkscape:label="Layer 1"
     inkscape:groupmode="layer"
     id="layer1"
     transform="translate(-31.921372,-84.437423)">
    <path
       id="path11451"
       style="font-weight:900;font-size:28.0071px;line-height:1.25;font-family:'Roboto Slab';-inkscape-font-specification:'Roboto Slab Heavy';fill:#000000;stroke-width:0.70018"
       d="m 93.674384,92.379889 v 2.8174 l 2.078426,0.4377 v 4.854481 c -0.428492,-0.583477 -0.929936,-1.034829 -1.504301,-1.353919 -0.565248,-0.328208 -1.239597,-0.492477 -2.023648,-0.492477 -1.130495,0 -2.110753,0.323699 -2.940391,0.970999 -0.820518,0.638177 -1.45393,1.536567 -1.900658,2.694407 -0.446728,1.14873 -0.670242,2.49311 -0.670242,4.03387 v 0.28732 c 0,1.47694 0.218678,2.77174 0.656291,3.884 0.309422,0.76408 0.717116,1.40172 1.210262,1.92959 2.390203,-0.0787 4.781034,-0.1481 7.172171,-0.20205 0.09418,-0.12355 0.200007,-0.22396 0.287838,-0.36019 l 0.06821,0.35141 c 2.055553,-0.0453 4.111598,-0.0789 6.167588,-0.10594 v -1.21647 l -1.7229,-0.4377 V 92.379889 h -4.800222 z m 59.378286,0 v 2.8174 l 2.07843,0.4377 v 4.854481 c -0.4285,-0.583477 -0.92994,-1.034829 -1.5043,-1.353919 -0.56525,-0.328208 -1.2396,-0.492477 -2.02365,-0.492477 -1.1305,0 -2.11075,0.323699 -2.94039,0.970999 -0.82052,0.638177 -1.45393,1.536567 -1.90066,2.694407 -0.44673,1.14873 -0.67024,2.49311 -0.67024,4.03387 v 0.28732 c 0,1.47694 0.21868,2.77174 0.65629,3.884 0.44318,1.09438 1.07596,1.94502 1.89601,2.55488 1.76927,0.0952 3.53792,0.19711 5.30613,0.30592 0.55794,-0.36058 1.05236,-0.84857 1.46813,-1.49345 l 0.31057,1.60146 c 1.13881,0.073 2.277,0.15232 3.4153,0.23099 h 2.50992 v -2.80345 l -1.72289,-0.4377 V 92.379889 h -4.80022 z m -112.835488,1.422135 -5.935038,16.902846 -1.394746,0.20515 v 2.80345 h 7.453292 v -2.80345 l -1.299147,-0.24598 0.574127,-2.16059 h 6.400126 l 0.601514,2.16059 -1.299147,0.24598 v 2.80345 h 7.43934 v -2.80345 l -1.394748,-0.20515 -5.948474,-16.902846 z m 2.530078,4.609023 h 0.08217 l 0.21859,0.697114 1.942002,6.031159 h -4.362526 l 1.887225,-5.962428 z m 20.759457,0.232027 c -0.820521,0 -1.513694,0.169103 -2.078942,0.506428 -0.565248,0.337325 -1.04838,0.815623 -1.449525,1.435568 l -0.164331,-1.66811 h -6.577377 v 2.81688 l 2.078426,0.4377 v 12.16877 c 1.590265,-0.12931 3.181409,-0.25276 4.772838,-0.37104 v -1.58233 c 0.401142,0.52878 0.87512,0.93003 1.422135,1.20354 0.204375,0.10051 0.4332,0.16224 0.66094,0.22583 1.138523,-0.0812 2.277282,-0.15911 3.416329,-0.23461 0.321659,-0.13584 0.631121,-0.29322 0.914156,-0.49713 0.847871,-0.61083 1.495272,-1.46776 1.942,-2.5709 0.455845,-1.11226 0.68368,-2.40706 0.68368,-3.884 v -0.28732 c 0,-1.53165 -0.227835,-2.87602 -0.68368,-4.03387 -0.446728,-1.15784 -1.089293,-2.05623 -1.928048,-2.694407 -0.838753,-0.6473 -1.841638,-0.970999 -3.008601,-0.970999 z m 14.427544,0 c -1.513404,0 -2.808208,0.323699 -3.884002,0.970999 -1.075793,0.638177 -1.900935,1.522567 -2.475301,2.653067 -0.565248,1.1305 -0.848011,2.43446 -0.848011,3.91139 v 0.27337 c 0,1.49517 0.282763,2.81261 0.848011,3.95221 0.574366,1.1305 1.399508,2.01489 2.475301,2.65307 0.01029,0.006 0.02223,0.01 0.03256,0.0155 2.75489,-0.14856 5.510679,-0.28177 8.267711,-0.39739 0.813287,-0.59733 1.462995,-1.35244 1.929082,-2.28461 0.574363,-1.13962 0.861447,-2.45273 0.861447,-3.93878 v -0.27337 c 0,-1.48605 -0.287084,-2.79433 -0.861447,-3.92483 -0.565248,-1.13049 -1.386072,-2.01488 -2.461866,-2.653062 -1.066675,-0.638183 -2.360961,-0.957564 -3.883482,-0.957564 z m 32.260049,0 c -1.48606,-0.0091 -2.73992,0.314584 -3.76101,0.970999 -1.0211,0.647297 -1.79615,1.549997 -2.32493,2.707847 -0.52878,1.15785 -0.79271,2.48875 -0.79271,3.99304 v 0.50643 c -10e-6,1.36753 0.29623,2.59342 0.88883,3.67832 0.33479,0.60364 0.75046,1.12914 1.23197,1.59164 3.5381,-0.0304 7.07617,-0.0356 10.61434,-0.0119 l -0.98806,-2.61897 c -0.66553,0.30998 -1.29946,0.53782 -1.90117,0.68369 -0.5926,0.13675 -1.19855,0.20515 -1.8185,0.20515 -0.62906,0 -1.15797,-0.10502 -1.58646,-0.31471 -0.42849,-0.20969 -0.76567,-0.49193 -1.01183,-0.84749 -0.23704,-0.36468 -0.39215,-0.7794 -0.46509,-1.24437 l 0.0134,-0.0961 h 8.13697 v -2.4753 c 0,-1.45871 -0.24182,-2.68459 -0.72502,-3.67833 -0.48319,-1.00286 -1.18932,-1.7596 -2.11925,-2.270145 -0.9208,-0.51966 -2.05134,-0.779796 -3.39152,-0.779796 z m 17.87332,0 c -0.72935,0 -1.34013,0.200887 -1.83244,0.60203 -0.4832,0.392025 -0.88878,1.007126 -1.21698,1.845886 l -0.0274,-0.36897 -0.10955,-1.80506 h -6.5779 v 2.81688 l 2.05156,0.4377 v 8.30078 l -1.7229,0.4377 v 1.1958 c 2.749,0.0286 5.49774,0.0715 8.24601,0.1328 v -1.3286 l -1.72289,-0.4377 v -6.53655 c 0.27351,-0.28262 0.54228,-0.48351 0.80667,-0.60203 0.27351,-0.1276 0.6473,-0.18201 1.12138,-0.16381 l 2.05104,0.0956 0.47903,-4.40335 c -0.28262,-0.08205 -0.56106,-0.136977 -0.83457,-0.16433 -0.27351,-0.03647 -0.51049,-0.05478 -0.71107,-0.05478 z m 8.72505,0 c -1.1305,0 -2.15601,0.136802 -3.07681,0.41031 -0.91169,0.273508 -1.78693,0.597207 -2.62568,0.970996 l 0.0682,4.11655 h 3.37809 l 0.32814,-1.88723 c 0.21881,-0.14586 0.46012,-0.2552 0.72451,-0.32814 0.27351,-0.0821 0.56542,-0.12299 0.8754,-0.12299 0.72934,0 1.26257,0.20952 1.5999,0.6289 0.33732,0.41026 0.50591,0.91171 0.50591,1.5043 v 0.87489 h -1.54513 c -1.50428,0 -2.75815,0.2052 -3.761,0.61546 -0.99375,0.40114 -1.74134,0.95751 -2.24276,1.66863 -0.49231,0.71112 -0.73846,1.52711 -0.73846,2.44792 0,1.1265 0.3336,2.05443 0.96274,2.80603 2.39155,0.0685 4.78278,0.15224 7.1732,0.24546 0.11407,-0.11978 0.23542,-0.22351 0.34313,-0.3576 0.0251,0.12536 0.089,0.25082 0.13126,0.3762 2.04896,0.0813 4.09749,0.17025 6.14536,0.26975 v -1.97249 l -1.5999,-0.27336 c -0.0365,-0.18234 -0.0591,-0.37407 -0.0682,-0.57465 v -0.61495 -5.45651 c 0,-1.71398 -0.59248,-3.03141 -1.77767,-3.95221 -1.1852,-0.929928 -2.78539,-1.395266 -4.80023,-1.395266 z m 32.77991,0 c -1.48606,-0.0091 -2.73992,0.314584 -3.76101,0.970999 -1.02109,0.647297 -1.79562,1.549997 -2.3244,2.707847 -0.52878,1.15785 -0.79324,2.48875 -0.79324,3.99304 v 0.50643 c 0,1.36753 0.29624,2.59342 0.88884,3.67832 0.60171,1.08492 1.44033,1.94184 2.51612,2.57091 1.08491,0.61994 2.35225,0.93017 3.80184,0.93017 1.17608,0 2.24253,-0.15511 3.1998,-0.46509 0.95728,-0.30997 1.76895,-0.70207 2.43448,-1.17615 l -1.09399,-2.89905 c -0.66553,0.30997 -1.29946,0.53781 -1.90118,0.68368 -0.59259,0.13675 -1.19854,0.20516 -1.81849,0.20516 -0.62906,0 -1.15797,-0.10503 -1.58647,-0.31471 -0.42849,-0.20969 -0.76567,-0.49194 -1.01182,-0.8475 -0.23704,-0.36467 -0.39216,-0.7794 -0.46509,-1.24437 l 0.0134,-0.0961 h 8.13697 v -2.4753 c 0,-1.45871 -0.24131,-2.68459 -0.7245,-3.67833 -0.4832,-1.00286 -1.18985,-1.759605 -2.11977,-2.270151 -0.9208,-0.51966 -2.05134,-0.779795 -3.39152,-0.779795 z m 14.31799,0.04134 c -1.4587,0 -2.62586,0.218681 -3.50108,0.656291 -0.8661,0.428492 -1.49036,0.994015 -1.87327,1.696015 -0.3829,0.70201 -0.57464,1.46739 -0.57464,2.29702 0,1.22167 0.41041,2.24286 1.23093,3.06338 0.82052,0.8114 2.09702,1.38609 3.82923,1.72341 1.08491,0.20057 1.79156,0.43273 2.11977,0.69712 0.33732,0.25527 0.50591,0.53803 0.50591,0.84801 0,0.31908 -0.14596,0.58354 -0.4377,0.79323 -0.29174,0.20969 -0.82496,0.31471 -1.59991,0.31471 -0.41937,0 -0.77969,-0.0414 -1.08055,-0.12351 -0.30086,-0.0912 -0.547,-0.19567 -0.73846,-0.31419 l -0.54673,-2.14716 h -3.24115 l 0.0548,4.60851 c 0.81141,0.37379 1.71842,0.67003 2.72128,0.88883 1.01197,0.20969 2.10157,0.31471 3.26853,0.31471 1.98749,0 3.50045,-0.42388 4.53978,-1.27175 1.04844,-0.85699 1.57303,-2.01499 1.57303,-3.4737 0,-1.35841 -0.42872,-2.37045 -1.28571,-3.03599 -0.84787,-0.66553 -2.11521,-1.18528 -3.80183,-1.55907 -0.70201,-0.15499 -1.23523,-0.32357 -1.59991,-0.50591 -0.36468,-0.18234 -0.61082,-0.37356 -0.73845,-0.57413 -0.11852,-0.20057 -0.17777,-0.40146 -0.17777,-0.60203 0,-0.34644 0.14112,-0.62869 0.42375,-0.84749 0.28262,-0.21881 0.72965,-0.32815 1.34048,-0.32815 0.32821,0 0.62445,0.0361 0.88884,0.10904 0.26438,0.0729 0.50138,0.18227 0.71107,0.32814 l 0.41031,1.91462 h 3.22719 l 0.0139,-4.458131 c -0.6473,-0.291741 -1.47728,-0.533051 -2.48925,-0.724504 -1.00286,-0.191455 -2.06016,-0.287321 -3.17242,-0.287321 z m -73.58724,3.432346 c 0.44673,0 0.7979,0.091 1.05317,0.27337 0.25527,0.18234 0.43302,0.45163 0.5333,0.80719 0.10941,0.35556 0.16433,0.79775 0.16433,1.32653 v 0.35553 h -3.76101 l -0.0548,-0.0687 c 0.0547,-0.51966 0.14626,-0.97965 0.27389,-1.3808 0.13675,-0.41026 0.34627,-0.72965 0.6289,-0.95756 0.29174,-0.23704 0.67901,-0.35554 1.1622,-0.35554 z m 59.37829,0 c 0.44673,0 0.79789,0.091 1.05317,0.27337 0.25527,0.18234 0.43301,0.45163 0.5333,0.80719 0.1094,0.35556 0.16433,0.79775 0.16433,1.32653 v 0.35553 h -3.76101 l -0.0548,-0.0687 c 0.0547,-0.51966 0.14625,-0.97965 0.27389,-1.3808 0.13675,-0.41026 0.34628,-0.72965 0.6289,-0.95756 0.29174,-0.23704 0.679,-0.35554 1.1622,-0.35554 z m -91.747369,0.19172 c 0.592598,0 1.066575,0.16375 1.422135,0.49196 0.355558,0.3191 0.610857,0.77045 0.765845,1.35393 0.164102,0.57436 0.24598,1.24923 0.24598,2.02416 v 0.27337 c 0,0.80229 -0.08188,1.49546 -0.24598,2.07894 -0.154988,0.58348 -0.410287,1.03431 -0.765845,1.35341 -0.346443,0.30997 -0.811784,0.46509 -1.395264,0.46509 -0.601716,0 -1.080011,-0.15512 -1.435571,-0.46509 -0.35556,-0.30998 -0.610857,-0.75649 -0.765844,-1.33997 -0.154988,-0.58348 -0.232545,-1.28098 -0.232545,-2.09238 v -0.27337 c 0,-0.77493 0.07756,-1.4498 0.232545,-2.02416 0.154987,-0.58348 0.410284,-1.03483 0.765844,-1.35393 0.35556,-0.32821 0.825219,-0.49196 1.4087,-0.49196 z m -15.945797,0.0134 c 0.565248,0 1.016598,0.16859 1.353923,0.50591 0.34644,0.32821 0.597421,0.79355 0.752409,1.39527 0.154987,0.60171 0.232026,1.30784 0.232026,2.11925 v 0.28732 c 0,1.17608 -0.168587,2.09226 -0.505912,2.74867 -0.337326,0.6473 -0.938954,0.971 -1.805059,0.971 -0.419373,0 -0.797489,-0.0727 -1.134814,-0.21859 -0.337325,-0.15499 -0.601779,-0.38282 -0.793231,-0.68368 v -6.03116 c 0.191452,-0.36467 0.451069,-0.63828 0.77928,-0.82062 0.337325,-0.18234 0.711117,-0.27337 1.121378,-0.27337 z m 31.808911,0 c 0.410261,0 0.779733,0.10019 1.107943,0.30076 0.337325,0.19146 0.61957,0.47421 0.847492,0.84801 v 5.9216 c -0.227922,0.30997 -0.515003,0.54213 -0.861446,0.69712 -0.346443,0.15498 -0.720235,0.23254 -1.121378,0.23254 -0.847871,0 -1.436026,-0.31887 -1.764234,-0.95705 -0.328208,-0.6473 -0.491958,-1.55915 -0.491958,-2.73523 v -0.28732 c 0,-0.80229 0.07272,-1.5041 0.218591,-2.10582 0.154987,-0.60172 0.401132,-1.07138 0.738454,-1.4087 0.337326,-0.33732 0.779521,-0.50591 1.326536,-0.50591 z m 59.378285,0 c 0.41026,0 0.77973,0.10019 1.10794,0.30076 0.33732,0.19146 0.61957,0.47421 0.8475,0.84801 v 5.9216 c -0.22793,0.30997 -0.51501,0.54213 -0.86145,0.69712 -0.34644,0.15498 -0.72023,0.23254 -1.12138,0.23254 -0.84786,0 -1.43602,-0.31887 -1.76423,-0.95705 -0.32821,-0.6473 -0.49196,-1.55915 -0.49196,-2.73523 v -0.28732 c 0,-0.80229 0.0727,-1.5041 0.21859,-2.10582 0.15499,-0.60172 0.40114,-1.07138 0.73846,-1.4087 0.33732,-0.33732 0.77952,-0.50591 1.32653,-0.50591 z M 137.08,107.62806 h 1.49035 v 2.1332 c -0.25527,0.28263 -0.56066,0.49699 -0.91622,0.64285 -0.34644,0.13676 -0.69278,0.20516 -1.03922,0.20516 -0.45584,0 -0.82963,-0.12765 -1.12137,-0.38292 -0.29174,-0.25527 -0.4377,-0.60643 -0.4377,-1.05317 0,-0.46496 0.17342,-0.83876 0.51986,-1.12137 0.35556,-0.28263 0.857,-0.42375 1.5043,-0.42375 z"
       sodipodi:nodetypes="cccccsccssccccccccccccccccsccssccccccccccccccccccccccccccccccccccccsscccccccccccscssccssccsscccccssccsssssscccccssccccsccssscccccccccccccccccccssccccccscscsccscccccccccscssccssccsscccssccccsccssscsscccsssccccccscsccscsssscccccsssscscccccssscscccccssccssccsssssccsscssccsccccssccccscsscsssccccscsscssscccssscscccs" />
    <g
       aria-label="Les"
       id="text2564"
       style="font-size:28.0071px;line-height:1.25;fill:#000000;stroke-width:0.70018"
       transform="matrix(0.61855705,0,0,0.61855705,26.475768,36.882157)">
      <path
         d="m 46.55577,96.792267 0.478637,-2.393185 2.20173,-0.41026 2.858147,-14.290732 -2.037626,-0.41026 0.478637,-2.40686 h 2.119678 3.993199 2.40686 l -0.478636,2.40686 -2.488913,0.41026 -2.803445,14.0309 h 5.620566 l 0.765819,-2.912847 h 3.049601 l -1.189755,5.976124 z"
         style="font-style:italic;font-weight:bold;font-family:'Roboto Slab';-inkscape-font-specification:'Roboto Slab Bold';fill:#000000"
         id="path11444" />
      <path
         d="m 70.094611,97.079449 q -2.119677,0 -3.528238,-0.929923 -1.394884,-0.943599 -1.941898,-2.58464 -0.533338,-1.641041 -0.109403,-3.747043 l 0.109403,-0.547014 q 0.437611,-2.20173 1.600015,-3.897472 1.162404,-1.709418 2.858146,-2.680367 1.695742,-0.984625 3.719693,-0.970949 2.010275,0 3.213705,0.793169 1.217106,0.79317 1.627366,2.283782 0.423935,1.490613 0,3.610291 l -0.437611,2.174379 h -8.697517 l -0.04103,0.08205 q -0.123078,0.970949 0.123078,1.736768 0.259831,0.752144 0.916248,1.189755 0.656416,0.423936 1.709417,0.423936 1.094028,0 2.092328,-0.273507 1.011975,-0.287182 2.02395,-0.834196 l 0.58804,2.461561 q -1.066677,0.738469 -2.557289,1.230781 -1.476937,0.478637 -3.268407,0.478637 z m -1.039326,-9.135128 h 4.936799 l 0.08205,-0.355559 q 0.177779,-0.902572 0.06838,-1.545313 -0.109402,-0.656417 -0.574364,-1.011976 -0.451286,-0.355559 -1.285482,-0.355559 -0.79317,0 -1.422235,0.423936 -0.629066,0.41026 -1.080352,1.135053 -0.451287,0.724793 -0.752144,1.641041 z"
         style="font-style:italic;font-weight:bold;font-family:'Roboto Slab';-inkscape-font-specification:'Roboto Slab Bold';fill:#000000"
         id="path11446" />
      <path
         d="m 84.099069,97.079449 q -1.654717,0 -3.022251,-0.314533 -1.367534,-0.314533 -2.557289,-0.902572 l 0.79317,-4.184655 h 2.776094 l 0.109403,2.133353 q 0.41026,0.232481 0.929923,0.369235 0.533339,0.136753 1.244456,0.136753 1.340184,0 1.96925,-0.437611 0.642741,-0.437611 0.779494,-1.094027 0.123078,-0.615391 -0.369234,-1.080352 -0.492312,-0.478637 -2.147029,-0.834196 -2.516263,-0.547014 -3.541913,-1.695742 -1.011975,-1.148729 -0.656417,-2.940199 0.246157,-1.23078 1.066677,-2.242756 0.834196,-1.011975 2.229081,-1.627365 1.40856,-0.615391 3.40516,-0.615391 1.668391,0 2.994899,0.328209 1.326509,0.314532 2.160704,0.834195 l -0.765819,4.047901 h -2.762419 l -0.04103,-1.941898 q -0.314533,-0.273507 -0.793169,-0.41026 -0.464962,-0.136754 -1.094028,-0.136754 -1.053001,0 -1.695742,0.423936 -0.642741,0.423935 -0.779495,1.094027 -0.08205,0.38291 0.0547,0.711118 0.136753,0.328208 0.656416,0.61539 0.533338,0.287182 1.61369,0.547014 2.611991,0.629066 3.664992,1.682067 1.053001,1.039326 0.670092,2.926523 -0.410261,2.064977 -2.160704,3.336783 -1.750444,1.271807 -4.731668,1.271807 z"
         style="font-style:italic;font-weight:bold;font-family:'Roboto Slab';-inkscape-font-specification:'Roboto Slab Bold';fill:#000000"
         id="path11448" />
    </g>
    <path
       style="color:#000000;clip-rule:nonzero;fill:#000000;fill-rule:nonzero;stroke:none;stroke-width:1.98472;stroke-linejoin:miter;stroke-miterlimit:2;-inkscape-stroke:none"
       d="m 31.921372,117.51948 v 9.21905 c 52.410172,-6.23429 105.812418,-6.26178 158.231578,-0.0836 v -9.21913 c -52.43297,-6.03588 -105.807264,-6.00713 -158.231578,0.0837"
       id="path11546" />
  </g>
</svg>
