<?xml version="1.0" encoding="UTF-8" standalone="no"?>
<svg
   width="1458.6858"
   height="729.69324"
   viewBox="0 0 1458.6858 729.69323"
   version="1.1"
   xml:space="preserve"
   style="clip-rule:evenodd;fill-rule:evenodd;stroke-linejoin:round;stroke-miterlimit:2"
   id="svg68"
   sodipodi:docname="logo.svg"
   inkscape:version="1.1.1 (3bf5ae0d25, 2021-09-20, custom)"
   xmlns:inkscape="http://www.inkscape.org/namespaces/inkscape"
   xmlns:sodipodi="http://sodipodi.sourceforge.net/DTD/sodipodi-0.dtd"
   xmlns="http://www.w3.org/2000/svg"
   xmlns:svg="http://www.w3.org/2000/svg"><defs
   id="defs72" /><sodipodi:namedview
   id="namedview70"
   pagecolor="#ffffff"
   bordercolor="#666666"
   borderopacity="1.0"
   inkscape:pageshadow="2"
   inkscape:pageopacity="0.0"
   inkscape:pagecheckerboard="0"
   showgrid="false"
   inkscape:zoom="0.30482962"
   inkscape:cx="661.025"
   inkscape:cy="-70.531204"
   inkscape:window-width="1720"
   inkscape:window-height="1372"
   inkscape:window-x="0"
   inkscape:window-y="38"
   inkscape:window-maximized="0"
   inkscape:current-layer="g66"
   fit-margin-top="0"
   fit-margin-left="0"
   fit-margin-right="0"
   fit-margin-bottom="0" />
    <g
   transform="translate(-2391.3927,-1311.5118)"
   id="g66">
        <g
   transform="translate(2569.75,1555.36)"
   id="g4">
            <path
   d="M 0,177.379 H -45.155 V 126.638 H 0 c 9.311,0 16.294,2.487 20.948,7.448 4.656,4.968 6.984,10.867 6.984,17.689 C 27.777,167.484 16.886,177.794 0,177.379 M -45.155,4.642 h 38.021 c 8.133,0 13.92,2.347 17.367,7.041 3.44,4.695 5.163,9.55 5.163,14.55 -0.093,12.789 -8.658,21.97 -22.53,21.593 H -45.155 Z M 132.593,126.004 C 126.587,103.28 111.456,88.299 92.034,77.102 111.507,62.187 120.396,39.595 120.31,14.061 120.279,-24.967 94.894,-56.058 57.269,-68.68 43.051,-73.779 26.516,-76.329 7.671,-76.329 h -177.713 c -0.652,7.372 -1.12,14.714 -1.427,22.043 v 39.054 c 0.307,7.327 0.775,14.666 1.427,22.033 h 21.244 v 171.658 h -21.244 c -0.663,7.492 -1.124,14.953 -1.427,22.402 v 37.961 c 0.201,4.956 0.458,9.915 0.816,14.886 95.564,-14.638 191.477,-26.374 287.601,-35.198 18.736,-25.91 23.313,-62.38 15.645,-92.506"
   style="fill-rule:nonzero"
   id="path2" />
        </g>
        <g
   transform="translate(2887.36,1501.21)"
   id="g8">
            <path
   d="m 0,234.233 c -46.018,-1.117 -57.621,-41.495 -58.011,-87.713 0.316,-45.957 12.12,-87.196 58.012,-88.176 44.489,1.243 56.928,42.952 57.082,88.177 C 56.924,191.864 44.49,232.99 0,234.233 M 165.911,82.013 C 145.517,7.734 78.951,-33.01 0.001,-31.224 c -79.708,-1.831 -146.175,38.459 -166.84,113.236 -12.034,42.486 -12.098,86.388 0.001,128.784 6.082,21.836 16.091,40.73 29.196,56.492 94.716,-7.438 189.606,-12.061 284.539,-13.864 8.197,-12.646 14.647,-26.88 19.014,-42.628 12.098,-42.396 12.036,-86.299 0,-128.783"
   style="fill-rule:nonzero"
   id="path6" />
        </g>
        <g
   transform="translate(3187.48,1679.58)"
   id="g12">
            <path
   d="m 0,-119.578 h 43.743 c 7.445,0 13.568,2.486 18.381,7.446 4.806,4.965 7.213,11.48 7.213,19.545 0.2,16.344 -10.313,27.122 -26.525,26.989 H 0 Z m -104.722,2.159 V 54.238 h -21.41 c -0.608,6.823 -1.063,13.621 -1.374,20.406 49.944,-0.68 99.897,-0.577 149.838,0.301 C 22.022,68.06 21.561,61.162 20.944,54.238 H 0 V 15.373 h 22.815 l 28.01,60.152 c 47.389,1.115 94.765,2.928 142.112,5.446 -0.284,-8.887 -0.791,-17.788 -1.582,-26.733 H 161.649 L 131.02,-2.38 c 22.996,-15.874 36.93,-42.167 42.232,-68.454 10.762,-50.546 -16.605,-102.87 -65.205,-121.129 -14.386,-5.721 -30.558,-8.586 -48.498,-8.586 h -185.516 c -2.465,27.847 -2.465,55.291 0,83.13 z"
   style="fill-rule:nonzero"
   id="path10" />
        </g>
        <g
   transform="translate(3418.51,1689.82)"
   id="g16">
            <path
   d="M 0,-127.657 V 44 h -21.256 c -0.816,9.229 -1.337,18.411 -1.612,27.579 C 29.919,74.556 82.666,78.407 135.353,83.13 135.284,70.121 134.692,57.106 133.534,44 h -21.256 v -171.657 h 21.256 c 2.461,-27.84 2.461,-55.283 0,-83.13 h -154.79 c -2.465,27.847 -2.466,55.291 0,83.13 z"
   style="fill-rule:nonzero"
   id="path14" />
        </g>
        <g
   transform="translate(3785.42,1550.28)"
   id="g20">
            <path
   d="m 0,170.94 c -30.03,7.358 -75.612,5.829 -96.18,-14.778 -13.767,-12.506 -20.643,-34.249 -20.643,-65.215 0,-55.047 16.575,-82.573 49.732,-82.574 24.568,0.071 33.699,16.869 33.779,40.817 v 37.58 c 29.813,2.219 59.676,2.439 89.608,0.816 V -72.872 c -24.114,-1.463 -48.229,-1.18 -72.333,0.937 v 8.734 c -5.918,-3.736 -14.012,-7.706 -24.285,-11.909 -27.383,-10.653 -77.011,-7.545 -104.846,6.304 -63.186,28.732 -89.853,98.333 -89.435,166.727 0,54.701 14.228,97.521 42.684,128.455 81.682,8.005 163.199,18.119 244.471,30.327 0.176,-0.077 0.354,-0.151 0.529,-0.23 1.129,-0.536 2.189,-1.04 3.215,-1.53 V 146.415 C 39.946,157.594 20.479,166.478 0,170.94"
   style="fill-rule:nonzero"
   id="path18" />
        </g>
        <g
   transform="matrix(0,1,1,0,3138.54,1124.96)"
   id="g24">
            <path
   d="m 703.174,-740.261 h 110.31 c -74.596,478.101 -74.925,965.252 -1,1443.435 H 702.173 c -72.222,-478.309 -71.878,-965.205 1.001,-1443.435"
   style="fill-rule:nonzero"
   id="path22" />
        </g>
        <g
   transform="translate(2697.15,2001.67)"
   id="g28">
            <path
   d="m 0,-13.746 c 3.162,0 5.656,-0.77 7.48,-2.312 1.826,-1.539 2.738,-4.134 2.738,-7.785 0,-3.323 -0.894,-5.757 -2.676,-7.298 -1.785,-1.539 -4.178,-2.311 -7.177,-2.311 h -8.636 v 19.706 z m -32.356,33.573 v -53.4 h -7.421 c -0.487,-1.378 -0.851,-2.838 -1.095,-4.379 -0.243,-1.54 -0.364,-3 -0.364,-4.38 0,-1.377 0.121,-2.858 0.364,-4.439 0.244,-1.581 0.608,-3.06 1.095,-4.44 H 4.865 c 4.946,0 9.285,0.69 13.016,2.068 3.729,1.379 6.873,3.284 9.428,5.717 2.553,2.432 4.479,5.312 5.777,8.636 1.297,3.326 1.946,6.934 1.946,10.826 0,3.244 -0.486,6.529 -1.46,9.853 -0.972,3.326 -2.635,6.326 -4.987,9.002 -2.353,2.676 -5.454,4.846 -9.305,6.508 C 15.427,3.062 10.622,3.892 4.865,3.892 H -8.271 v 15.935 h 9.73 c 0.487,1.38 0.853,2.84 1.095,4.379 0.244,1.542 0.365,3.001 0.365,4.379 0,1.38 -0.121,2.858 -0.365,4.44 -0.242,1.582 -0.608,3.062 -1.095,4.44 h -41.236 c -0.487,-1.378 -0.851,-2.858 -1.095,-4.44 -0.243,-1.582 -0.364,-3.06 -0.364,-4.44 0,-1.378 0.121,-2.837 0.364,-4.379 0.244,-1.539 0.608,-2.999 1.095,-4.379 z"
   style="fill-rule:nonzero"
   id="path26" />
        </g>
        <g
   transform="translate(2792.14,2002.15)"
   id="g32">
            <path
   d="m 0,-14.718 c 6.892,0 10.339,-3.121 10.339,-9.366 0,-6.244 -3.447,-9.367 -10.339,-9.367 h -11.191 v 18.733 z m -35.276,34.06 v -53.401 h -7.42 c -0.487,-1.378 -0.852,-2.838 -1.095,-4.379 -0.243,-1.54 -0.365,-3 -0.365,-4.38 0,-1.377 0.122,-2.858 0.365,-4.439 0.243,-1.581 0.608,-3.06 1.095,-4.44 H 4.622 c 4.702,0 8.96,0.73 12.773,2.189 3.81,1.46 7.012,3.448 9.609,5.961 2.595,2.515 4.601,5.455 6.021,8.819 1.418,3.366 2.129,6.914 2.129,10.644 0,1.541 -0.204,3.365 -0.608,5.473 -0.407,2.11 -1.095,4.279 -2.068,6.508 -0.973,2.232 -2.311,4.401 -4.014,6.508 -1.703,2.109 -3.853,3.935 -6.447,5.474 l 10.339,19.463 h 8.637 c 0.486,1.379 0.851,2.839 1.095,4.378 0.243,1.542 0.364,3.001 0.364,4.379 0,1.38 -0.121,2.859 -0.364,4.441 -0.244,1.581 -0.609,3.061 -1.095,4.439 H 14.231 L -1.582,3.528 h -9.609 v 15.814 h 8.15 c 0.486,1.379 0.852,2.839 1.095,4.378 0.243,1.542 0.364,3.001 0.364,4.379 0,1.38 -0.121,2.859 -0.364,4.441 -0.243,1.581 -0.609,3.061 -1.095,4.439 h -39.655 c -0.487,-1.378 -0.852,-2.858 -1.095,-4.439 -0.243,-1.582 -0.365,-3.061 -0.365,-4.441 0,-1.378 0.122,-2.837 0.365,-4.379 0.243,-1.539 0.608,-2.999 1.095,-4.378 z"
   style="fill-rule:nonzero"
   id="path30" />
        </g>
        <g
   transform="translate(2859.71,1968.1)"
   id="g36">
            <path
   d="M 0,53.4 V 0 h -7.42 c -0.486,-1.378 -0.851,-2.838 -1.095,-4.379 -0.243,-1.54 -0.364,-3 -0.364,-4.38 0,-1.377 0.121,-2.859 0.364,-4.44 0.244,-1.581 0.609,-3.059 1.095,-4.439 H 65.564 V 5.23 C 64.105,5.96 62.421,6.507 60.517,6.872 58.61,7.237 56.847,7.42 55.226,7.42 53.603,7.42 51.819,7.237 49.873,6.872 47.927,6.507 46.224,5.96 44.765,5.23 V 0.851 H 24.572 v 15.814 h 31.14 c 0.486,1.459 0.851,3.04 1.095,4.743 0.243,1.704 0.365,3.285 0.365,4.744 0,1.46 -0.122,3.041 -0.365,4.744 -0.244,1.703 -0.609,3.284 -1.095,4.744 h -31.14 v 16.908 h 20.922 v -6.69 c 1.46,-0.729 3.163,-1.277 5.11,-1.642 1.946,-0.365 3.728,-0.547 5.351,-0.547 1.621,0 3.385,0.182 5.292,0.547 1.904,0.365 3.588,0.913 5.048,1.642 v 25.18 H -7.42 C -7.906,69.66 -8.271,68.2 -8.515,66.659 -8.758,65.119 -8.879,63.66 -8.879,62.28 c 0,-1.378 0.121,-2.859 0.364,-4.44 0.244,-1.582 0.609,-3.06 1.095,-4.44 z"
   style="fill-rule:nonzero"
   id="path34" />
        </g>
        <g
   transform="translate(2947.16,1982.21)"
   id="g40">
            <path
   d="m 0,25.057 c 1.378,-0.648 2.938,-1.134 4.683,-1.459 1.743,-0.323 3.424,-0.487 5.047,-0.487 1.622,0 3.346,0.164 5.17,0.487 1.825,0.325 3.425,0.811 4.805,1.459 v 4.258 c 0,0.972 0.385,2.089 1.156,3.345 0.77,1.258 1.925,2.414 3.467,3.466 1.539,1.056 3.467,1.947 5.777,2.677 2.312,0.73 5.007,1.094 8.089,1.094 4.459,0 7.622,-0.668 9.489,-2.006 1.865,-1.339 2.797,-3.143 2.797,-5.414 0,-1.946 -0.751,-3.607 -2.25,-4.987 -1.501,-1.378 -4.035,-2.594 -7.602,-3.649 L 23.354,18.732 C 20.354,17.84 17.535,16.745 14.9,15.448 12.265,14.151 9.953,12.488 7.967,10.46 5.979,8.434 4.419,6.02 3.284,3.222 2.147,0.425 1.581,-2.921 1.581,-6.812 c 0,-4.784 0.931,-8.881 2.798,-12.286 1.864,-3.407 4.216,-6.204 7.055,-8.394 2.837,-2.189 6,-3.81 9.488,-4.865 3.485,-1.054 6.851,-1.581 10.097,-1.581 5.837,0 10.378,0.832 13.623,2.493 3.243,1.663 5.513,3.509 6.811,5.535 v -4.866 c 1.379,-0.648 2.96,-1.135 4.745,-1.46 1.782,-0.322 3.446,-0.486 4.987,-0.486 1.54,0 3.163,0.164 4.866,0.486 1.703,0.325 3.242,0.812 4.622,1.46 v 27.855 c -1.38,0.651 -2.919,1.137 -4.622,1.46 -1.703,0.326 -3.366,0.487 -4.988,0.487 -1.623,0 -3.386,-0.161 -5.292,-0.487 -1.906,-0.323 -3.547,-0.809 -4.925,-1.46 v -1.337 c 0,-2.919 -1.198,-5.454 -3.589,-7.603 -2.393,-2.147 -6.265,-3.224 -11.616,-3.224 -2.19,0 -4.036,0.305 -5.536,0.913 -1.501,0.608 -2.657,1.359 -3.466,2.25 -0.973,1.137 -1.459,2.433 -1.459,3.893 0,1.217 0.383,2.353 1.155,3.406 0.769,1.055 2.655,2.028 5.656,2.919 l 13.016,3.65 c 3.892,1.136 7.621,2.392 11.191,3.77 3.568,1.38 6.73,3.162 9.488,5.353 2.755,2.189 4.966,4.907 6.629,8.149 1.662,3.244 2.494,7.299 2.494,12.164 0,4.947 -1.015,9.165 -3.041,12.651 -2.028,3.488 -4.604,6.346 -7.725,8.576 -3.122,2.231 -6.61,3.852 -10.461,4.865 -3.853,1.014 -7.603,1.521 -11.251,1.521 -2.597,0 -5.13,-0.243 -7.602,-0.73 -2.476,-0.486 -4.745,-1.155 -6.813,-2.007 -2.067,-0.851 -3.853,-1.844 -5.353,-2.98 -1.501,-1.135 -2.615,-2.311 -3.344,-3.528 v 5.96 c -1.38,0.651 -2.961,1.137 -4.744,1.46 -1.785,0.324 -3.448,0.487 -4.988,0.487 -1.541,0 -3.162,-0.163 -4.865,-0.487 C 2.919,56.847 1.378,56.361 0,55.71 Z"
   style="fill-rule:nonzero"
   id="path38" />
        </g>
        <g
   transform="translate(3048.66,1968.1)"
   id="g44">
            <path
   d="M 0,53.4 V 0 h -7.421 c -0.486,-1.378 -0.85,-2.838 -1.095,-4.379 -0.243,-1.54 -0.364,-3 -0.364,-4.38 0,-1.377 0.121,-2.859 0.364,-4.44 0.245,-1.581 0.609,-3.059 1.095,-4.439 h 39.412 c 0.488,1.38 0.852,2.858 1.095,4.439 0.244,1.581 0.364,3.063 0.364,4.44 0,1.38 -0.12,2.84 -0.364,4.38 -0.243,1.541 -0.607,3.001 -1.095,4.379 h -7.42 v 53.4 h 7.42 c 0.488,1.38 0.852,2.84 1.095,4.379 0.244,1.542 0.364,3.001 0.364,4.379 0,1.38 -0.12,2.858 -0.364,4.44 -0.243,1.581 -0.607,3.062 -1.095,4.44 H -7.421 c -0.486,-1.378 -0.85,-2.859 -1.095,-4.44 -0.243,-1.582 -0.364,-3.06 -0.364,-4.44 0,-1.378 0.121,-2.837 0.364,-4.379 0.245,-1.539 0.609,-2.999 1.095,-4.379 z"
   style="fill-rule:nonzero"
   id="path42" />
        </g>
        <g
   transform="translate(3144.82,1969.43)"
   id="g48">
            <path
   d="m 0,50.722 c 2.838,0 5.067,-0.304 6.691,-0.912 1.622,-0.609 3.08,-1.52 4.378,-2.736 2.109,-2.027 3.832,-4.867 5.17,-8.515 1.339,-3.65 2.008,-8.191 2.008,-13.624 0,-4.784 -0.548,-8.859 -1.643,-12.226 C 15.51,9.346 13.947,6.649 11.921,4.62 10.298,2.999 8.455,1.823 6.387,1.093 4.318,0.364 1.783,-0.002 -1.216,-0.002 h -9.245 v 50.724 z m -35.032,1.339 V -1.34 h -7.42 c -0.487,-1.377 -0.852,-2.837 -1.095,-4.378 -0.243,-1.54 -0.365,-3 -0.365,-4.38 0,-1.377 0.122,-2.859 0.365,-4.44 0.243,-1.581 0.608,-3.059 1.095,-4.439 h 44.52 c 6.731,0 12.711,1.136 17.943,3.405 5.23,2.272 9.649,5.373 13.259,9.306 3.607,3.934 6.343,8.535 8.209,13.806 1.866,5.273 2.798,10.908 2.798,16.909 0,2.919 -0.263,6.042 -0.79,9.366 -0.528,3.326 -1.42,6.671 -2.675,10.035 -1.259,3.366 -2.901,6.61 -4.927,9.731 -2.029,3.122 -4.562,5.881 -7.603,8.272 -3.041,2.392 -6.63,4.299 -10.765,5.717 -4.136,1.42 -8.922,2.129 -14.354,2.129 h -45.615 c -0.487,-1.378 -0.852,-2.859 -1.095,-4.44 -0.243,-1.582 -0.365,-3.06 -0.365,-4.44 0,-1.378 0.122,-2.837 0.365,-4.379 0.243,-1.539 0.608,-2.999 1.095,-4.379 z"
   style="fill-rule:nonzero"
   id="path46" />
        </g>
        <g
   transform="translate(3214.5,1968.1)"
   id="g52">
            <path
   d="M 0,53.4 V 0 h -7.42 c -0.486,-1.378 -0.851,-2.838 -1.095,-4.379 -0.243,-1.54 -0.364,-3 -0.364,-4.38 0,-1.377 0.121,-2.859 0.364,-4.44 0.244,-1.581 0.609,-3.059 1.095,-4.439 H 65.565 V 5.23 C 64.105,5.96 62.421,6.507 60.517,6.872 58.61,7.237 56.847,7.42 55.226,7.42 53.603,7.42 51.819,7.237 49.873,6.872 47.927,6.507 46.224,5.96 44.765,5.23 V 0.851 H 24.572 v 15.814 h 31.14 c 0.486,1.459 0.851,3.04 1.095,4.743 0.243,1.704 0.365,3.285 0.365,4.744 0,1.46 -0.122,3.041 -0.365,4.744 -0.244,1.703 -0.609,3.284 -1.095,4.744 h -31.14 v 16.908 h 20.922 v -6.69 c 1.46,-0.729 3.163,-1.277 5.11,-1.642 1.946,-0.365 3.728,-0.547 5.351,-0.547 1.621,0 3.385,0.182 5.292,0.547 1.904,0.365 3.588,0.913 5.048,1.642 v 25.18 H -7.42 C -7.906,69.66 -8.271,68.2 -8.515,66.659 -8.758,65.119 -8.879,63.66 -8.879,62.28 c 0,-1.378 0.121,-2.859 0.364,-4.44 0.244,-1.582 0.609,-3.06 1.095,-4.44 z"
   style="fill-rule:nonzero"
   id="path50" />
        </g>
        <g
   transform="translate(3309.49,1968.1)"
   id="g56">
            <path
   d="M 0,53.4 V 0 h -7.42 c -0.487,-1.378 -0.851,-2.838 -1.095,-4.379 -0.244,-1.54 -0.365,-3 -0.365,-4.38 0,-1.377 0.121,-2.859 0.365,-4.44 0.244,-1.581 0.608,-3.059 1.095,-4.439 H 23.355 L 49.994,31.017 V 0 h -7.42 c -0.486,-1.378 -0.851,-2.838 -1.095,-4.379 -0.243,-1.54 -0.365,-3 -0.365,-4.38 0,-1.377 0.122,-2.859 0.365,-4.44 0.244,-1.581 0.609,-3.059 1.095,-4.439 h 37.587 c 0.486,1.38 0.852,2.858 1.095,4.439 0.243,1.581 0.365,3.063 0.365,4.44 0,1.38 -0.122,2.84 -0.365,4.38 C 81.013,-2.838 80.647,-1.378 80.161,0 H 72.619 V 71.038 H 50.481 L 22.625,20.435 V 53.4 h 7.542 c 0.486,1.38 0.852,2.84 1.095,4.379 0.243,1.542 0.364,3.001 0.364,4.379 0,1.38 -0.121,2.858 -0.364,4.44 -0.243,1.581 -0.609,3.062 -1.095,4.44 H -7.42 c -0.487,-1.378 -0.851,-2.859 -1.095,-4.44 -0.244,-1.582 -0.365,-3.06 -0.365,-4.44 0,-1.378 0.121,-2.837 0.365,-4.379 0.244,-1.539 0.608,-2.999 1.095,-4.379 z"
   style="fill-rule:nonzero"
   id="path54" />
        </g>
        <g
   transform="translate(3437.46,1968.1)"
   id="g60">
            <path
   d="M 0,53.4 V 0.486 h -10.339 v 12.772 c -1.38,0.651 -2.94,1.137 -4.683,1.46 -1.745,0.325 -3.387,0.487 -4.927,0.487 -1.541,0 -3.204,-0.162 -4.987,-0.487 -1.785,-0.323 -3.366,-0.809 -4.744,-1.46 v -30.896 h 83.689 v 30.896 c -1.38,0.651 -2.94,1.137 -4.683,1.46 -1.745,0.325 -3.387,0.487 -4.927,0.487 -1.541,0 -3.204,-0.162 -4.987,-0.487 -1.784,-0.323 -3.366,-0.809 -4.744,-1.46 V 0.486 H 24.328 V 53.4 h 7.785 c 0.488,1.38 0.852,2.84 1.096,4.379 0.243,1.542 0.364,3.001 0.364,4.379 0,1.38 -0.121,2.858 -0.364,4.44 -0.244,1.581 -0.608,3.062 -1.096,4.44 H -7.784 c -0.487,-1.378 -0.853,-2.859 -1.095,-4.44 -0.243,-1.582 -0.365,-3.06 -0.365,-4.44 0,-1.378 0.122,-2.837 0.365,-4.379 0.242,-1.539 0.608,-2.999 1.095,-4.379 z"
   style="fill-rule:nonzero"
   id="path58" />
        </g>
        <g
   transform="translate(3517.79,1968.1)"
   id="g64">
            <path
   d="M 0,53.4 V 0 h -7.42 c -0.486,-1.378 -0.851,-2.838 -1.094,-4.379 -0.244,-1.54 -0.365,-3 -0.365,-4.38 0,-1.377 0.121,-2.859 0.365,-4.44 0.243,-1.581 0.608,-3.059 1.094,-4.439 H 65.565 V 5.23 C 64.105,5.96 62.421,6.507 60.517,6.872 58.61,7.237 56.847,7.42 55.226,7.42 53.603,7.42 51.819,7.237 49.873,6.872 47.927,6.507 46.224,5.96 44.765,5.23 V 0.851 H 24.572 v 15.814 h 31.14 c 0.486,1.459 0.851,3.04 1.095,4.743 0.244,1.704 0.365,3.285 0.365,4.744 0,1.46 -0.121,3.041 -0.365,4.744 -0.244,1.703 -0.609,3.284 -1.095,4.744 h -31.14 v 16.908 h 20.922 v -6.69 c 1.46,-0.729 3.163,-1.277 5.11,-1.642 1.946,-0.365 3.728,-0.547 5.351,-0.547 1.622,0 3.386,0.182 5.292,0.547 1.904,0.365 3.588,0.913 5.048,1.642 v 25.18 H -7.42 C -7.906,69.66 -8.271,68.2 -8.514,66.659 -8.758,65.119 -8.879,63.66 -8.879,62.28 c 0,-1.378 0.121,-2.859 0.365,-4.44 0.243,-1.582 0.608,-3.06 1.094,-4.44 z"
   style="fill-rule:nonzero"
   id="path62" />
        </g>
    <text
   xml:space="preserve"
   style="font-style:normal;font-weight:normal;font-size:183.73px;line-height:0.65;font-family:sans-serif;fill:#000000;fill-opacity:1;stroke:none;stroke-width:0.956928"
   x="3120.0627"
   y="1444.4948"
   id="text3289"><tspan
     sodipodi:role="line"
     x="3120.0627"
     y="1444.4948"
     id="tspan3687"
     style="font-style:normal;font-variant:normal;font-weight:900;font-stretch:normal;font-size:183.73px;font-family:'Roboto Slab';-inkscape-font-specification:'Roboto Slab Heavy';text-align:center;text-anchor:middle;stroke:none;stroke-width:0.956928">APODERADOS X</tspan></text></g>
</svg>
